<svg width="320" height="219" viewBox="0 0 320 219" fill="none" xmlns="http://www.w3.org/2000/svg">
<path d="M99.3876 134.679V170.106H1.58647L0 142.291L55.6197 2.92781H78.6702L53.66 67.9251L28.3698 134.679H99.3876ZM84.8294 2.92781V216.072H55.713V2.92781H84.8294Z" fill="#8FA8A8"/>
<path d="M206.614 90.4693V128.384C206.614 143.999 205.494 157.516 203.255 168.934C201.077 180.353 197.904 189.771 193.736 197.188C189.63 204.605 184.715 210.119 178.991 213.73C173.329 217.243 167.046 219 160.14 219C154.603 219 149.439 217.878 144.649 215.633C139.858 213.388 135.534 209.924 131.677 205.239C127.882 200.457 124.616 194.504 121.878 187.38C119.141 180.255 117.025 171.765 115.532 161.908C114.101 152.051 113.386 140.876 113.386 128.384V90.4693C113.386 74.6591 114.475 61.0936 116.652 49.7727C118.892 38.4519 122.096 29.0829 126.264 21.6658C130.433 14.2487 135.348 8.78342 141.009 5.27005C146.733 1.75668 153.048 0 159.953 0C165.49 0 170.623 1.12233 175.351 3.36698C180.142 5.61163 184.466 9.0762 188.323 13.7607C192.18 18.4452 195.447 24.3496 198.122 31.4739C200.859 38.5983 202.944 47.0889 204.374 56.9459C205.868 66.7052 206.614 77.8797 206.614 90.4693ZM177.498 134.094V84.4672C177.498 77.1477 177.218 70.8041 176.658 65.4365C176.16 59.9713 175.414 55.3356 174.418 51.5294C173.485 47.7233 172.303 44.6491 170.872 42.3068C169.441 39.9646 167.792 38.2567 165.926 37.1832C164.122 36.012 162.131 35.4265 159.953 35.4265C157.216 35.4265 154.758 36.3048 152.581 38.0615C150.403 39.8182 148.568 42.5996 147.075 46.4057C145.582 50.1143 144.431 55.1404 143.622 61.484C142.875 67.7299 142.502 75.391 142.502 84.4672V134.094C142.502 141.413 142.751 147.805 143.249 153.271C143.809 158.736 144.555 163.42 145.488 167.324C146.484 171.13 147.697 174.253 149.128 176.693C150.559 179.035 152.208 180.743 154.074 181.817C155.941 182.89 157.962 183.427 160.14 183.427C162.877 183.427 165.304 182.598 167.419 180.939C169.534 179.182 171.339 176.4 172.832 172.594C174.387 168.691 175.538 163.567 176.285 157.223C177.093 150.88 177.498 143.17 177.498 134.094Z" fill="#8FA8A8"/>
<path d="M320 134.679V170.106H222.199L220.612 142.291L276.232 2.92781H299.283L274.272 67.9251L248.982 134.679H320ZM305.442 2.92781V216.072H276.325V2.92781H305.442Z" fill="#8FA8A8"/>
</svg>
