<?xml version="1.0" encoding="utf-8"?><svg viewBox="0 0 22 20" xmlns="http://www.w3.org/2000/svg" xmlns:xlink="http://www.w3.org/1999/xlink"><style>:root>svg{display:none}:root>svg:target{display:block}</style><svg viewBox="0 0 20 19" id="fb" xmlns="http://www.w3.org/2000/svg"><path fill-rule="evenodd" clip-rule="evenodd" d="M19.783 9.284C19.783 4.157 15.466 0 10.14 0 4.817 0 .5 4.157.5 9.284c0 4.634 3.525 8.475 8.135 9.172V11.97H6.186V9.284h2.449V7.24c0-2.327 1.44-3.613 3.642-3.613 1.055 0 2.158.182 2.158.182v2.285H13.22c-1.197 0-1.571.715-1.571 1.45v1.741h2.673l-.427 2.685h-2.246v6.488c4.61-.697 8.135-4.538 8.135-9.173z"/></svg><svg viewBox="0 0 20 19" id="instagram" xmlns="http://www.w3.org/2000/svg"><path d="M14.159 1.547a4.109 4.109 0 012.837 1.137 3.81 3.81 0 011.18 2.732v7.737a3.81 3.81 0 01-1.18 2.732 4.109 4.109 0 01-2.837 1.136H6.123a4.11 4.11 0 01-2.837-1.136 3.81 3.81 0 01-1.18-2.732V5.416a3.81 3.81 0 011.18-2.732 4.11 4.11 0 012.837-1.137h8.035zm0-1.547H6.123C3.031 0 .5 2.437.5 5.416v7.737c0 2.978 2.53 5.416 5.624 5.416h8.035c3.093 0 5.624-2.438 5.624-5.416V5.416C19.783 2.437 17.252 0 14.158 0z"/><path d="M15.363 5.417a1.24 1.24 0 01-.67-.196 1.171 1.171 0 01-.443-.52 1.12 1.12 0 01-.069-.671c.047-.225.162-.432.33-.594a1.22 1.22 0 01.617-.318c.234-.045.476-.022.697.066.22.088.408.237.54.427a1.13 1.13 0 01-.149 1.467 1.243 1.243 0 01-.853.34zm-5.222.773c.636 0 1.257.182 1.786.522.528.34.94.823 1.183 1.389.244.565.307 1.188.183 1.788a3.06 3.06 0 01-.88 1.585 3.254 3.254 0 01-1.645.847 3.327 3.327 0 01-1.857-.177 3.19 3.19 0 01-1.442-1.14 3.014 3.014 0 01-.542-1.719c.001-.82.34-1.607.942-2.187a3.281 3.281 0 012.272-.908zm0-1.547c-.953 0-1.885.272-2.678.782A4.685 4.685 0 005.687 7.51a4.483 4.483 0 00-.274 2.682c.186.9.645 1.727 1.32 2.377a4.88 4.88 0 002.468 1.27c.935.18 1.904.087 2.785-.264a4.786 4.786 0 002.163-1.71c.53-.763.813-1.66.813-2.579a4.557 4.557 0 00-1.412-3.282 4.916 4.916 0 00-3.409-1.36z"/></svg><svg viewBox="0 0 21 20" id="pinterest" xmlns="http://www.w3.org/2000/svg"><path d="M10.297 0C4.887 0 .5 4.385.5 9.792c0 4.009 2.414 7.454 5.865 8.97-.026-.681-.005-1.503.17-2.246l1.26-5.338s-.315-.625-.315-1.547c0-1.452.84-2.536 1.89-2.536.892 0 1.32.669 1.32 1.469 0 .896-.573 2.234-.866 3.475-.245 1.04.52 1.884 1.549 1.884 1.854 0 3.105-2.382 3.105-5.206 0-2.147-1.448-3.75-4.076-3.75-2.97 0-4.824 2.215-4.824 4.69 0 .852.253 1.456.647 1.919.18.214.205.301.14.546-.048.18-.153.612-.201.787-.066.25-.267.337-.49.245-1.37-.56-2.008-2.055-2.008-3.742 0-2.78 2.349-6.116 7.002-6.116 3.74 0 6.202 2.706 6.202 5.609 0 3.842-2.139 6.71-5.288 6.71-1.058 0-2.05-.572-2.392-1.22 0 0-.568 2.256-.69 2.693-.206.757-.613 1.509-.985 2.099a9.85 9.85 0 002.777.402c5.41 0 9.797-4.385 9.797-9.792C20.089 4.389 15.707 0 10.297 0z"/></svg><svg viewBox="0 0 22 17" id="tw" xmlns="http://www.w3.org/2000/svg"><path d="M21.16 1.958a8.686 8.686 0 01-2.434.659A4.197 4.197 0 0020.591.31a8.511 8.511 0 01-2.693 1.011A4.266 4.266 0 0014.803 0c-2.342 0-4.238 1.868-4.238 4.17-.001.321.035.64.11.952A12.082 12.082 0 011.937.762a4.119 4.119 0 00-.576 2.096 4.16 4.16 0 001.894 3.473 4.197 4.197 0 01-1.928-.52v.051c0 2.023 1.464 3.706 3.4 4.09a4.34 4.34 0 01-1.116.146 4.11 4.11 0 01-.797-.078c.539 1.657 2.106 2.863 3.962 2.897A8.591 8.591 0 01.5 14.643a11.995 11.995 0 006.488 1.885c7.806 0 12.07-6.357 12.07-11.87 0-.182-.004-.362-.012-.539a8.543 8.543 0 002.114-2.16z"/></svg></svg>